<?xml version="1.0" encoding="UTF-8" standalone="no"?>
<svg
   viewBox="0 0 48 48"
   version="1.1"
   id="svg843"
   sodipodi:docname="Font_Awesome_5_brands_facebook.svg"
   width="48"
   height="48"
   inkscape:version="1.1.2 (b8e25be833, 2022-02-05)"
   xmlns:inkscape="http://www.inkscape.org/namespaces/inkscape"
   xmlns:sodipodi="http://sodipodi.sourceforge.net/DTD/sodipodi-0.dtd"
   xmlns="http://www.w3.org/2000/svg"
   xmlns:svg="http://www.w3.org/2000/svg">
  <defs
     id="defs847" />
  <sodipodi:namedview
     id="namedview845"
     pagecolor="#ffffff"
     bordercolor="#666666"
     borderopacity="1.0"
     inkscape:pageshadow="2"
     inkscape:pageopacity="0.0"
     inkscape:pagecheckerboard="0"
     showgrid="false"
     fit-margin-top="0"
     fit-margin-left="0"
     fit-margin-right="0"
     fit-margin-bottom="0"
     inkscape:zoom="1.7050781"
     inkscape:cx="223.74341"
     inkscape:cy="223.74341"
     inkscape:window-width="2560"
     inkscape:window-height="1361"
     inkscape:window-x="-9"
     inkscape:window-y="-9"
     inkscape:window-maximized="1"
     inkscape:current-layer="svg843" />
  <path
     d="m 48,2.646429 v 42.696428 c 0,1.467857 -1.189286,2.646429 -2.646429,2.646429 H 33.117857 V 29.410714 h 6.235714 l 0.932143,-7.242857 h -7.178571 v -4.628571 c 0,-2.1 0.578571,-3.525 3.589286,-3.525 h 3.835714 V 7.532143 c -0.664286,-0.08571 -2.935714,-0.289286 -5.592857,-0.289286 -5.528572,0 -9.321429,3.375 -9.321429,9.578572 v 5.346428 h -6.257143 v 7.242857 h 6.257143 V 48 H 2.6464286 C 1.1892857,48 0,46.810714 0,45.353571 V 2.646429 C 0,1.189286 1.1892857,0 2.6464286,0 H 45.342857 C 46.810714,0 48,1.189286 48,2.646429 Z"
     id="path841"
     style="stroke-width:0.107143" />
</svg>
