<?xml version="1.0" encoding="UTF-8" standalone="no"?>
<svg
   aria-hidden="true"
   focusable="false"
   data-prefix="fab"
   data-icon="instagram-square"
   class="svg-inline--fa fa-instagram-square fa-w-14"
   role="img"
   viewBox="0 0 48 48"
   version="1.1"
   id="svg4"
   sodipodi:docname="Font_Awesome_5_brands_Instagram_square.svg"
   width="48"
   height="48"
   inkscape:version="1.1.2 (b8e25be833, 2022-02-05)"
   xmlns:inkscape="http://www.inkscape.org/namespaces/inkscape"
   xmlns:sodipodi="http://sodipodi.sourceforge.net/DTD/sodipodi-0.dtd"
   xmlns="http://www.w3.org/2000/svg"
   xmlns:svg="http://www.w3.org/2000/svg">
  <defs
     id="defs8" />
  <sodipodi:namedview
     id="namedview6"
     pagecolor="#ffffff"
     bordercolor="#666666"
     borderopacity="1.0"
     inkscape:pageshadow="2"
     inkscape:pageopacity="0.0"
     inkscape:pagecheckerboard="0"
     showgrid="false"
     fit-margin-top="0"
     fit-margin-left="0"
     fit-margin-right="0"
     fit-margin-bottom="0"
     inkscape:zoom="1.7050781"
     inkscape:cx="223.74341"
     inkscape:cy="223.74341"
     inkscape:window-width="2560"
     inkscape:window-height="1361"
     inkscape:window-x="-9"
     inkscape:window-y="-9"
     inkscape:window-maximized="1"
     inkscape:current-layer="svg4" />
  <path
     fill="currentColor"
     d="M 24,18.285 A 5.715,5.715 0 1 0 29.717143,24 5.7192857,5.7192857 0 0 0 24,18.285 Z M 37.361786,13.892143 A 5.7857143,5.7857143 0 0 0 34.103571,10.633929 C 31.853571,9.745714 26.496429,9.945 24,9.945 c -2.496429,0 -7.848214,-0.206786 -10.104643,0.688929 a 5.7857143,5.7857143 0 0 0 -3.258214,3.258214 c -0.887143,2.25 -0.6889287,7.6125 -0.6889287,10.106786 0,2.494285 -0.1982143,7.850357 0.6932147,10.107857 A 5.7857143,5.7857143 0 0 0 13.899643,37.365 c 2.25,0.888214 7.607143,0.688929 10.104643,0.688929 2.4975,0 7.847143,0.206785 10.103571,-0.688929 a 5.7857143,5.7857143 0 0 0 3.258214,-3.258214 C 38.260714,31.856786 38.055,26.494286 38.055,24 c 0,-2.494286 0.205714,-7.849286 -0.688929,-10.106786 z M 24,32.785714 A 8.7857143,8.7857143 0 1 1 32.785714,24 8.775,8.775 0 0 1 24,32.785714 Z m 9.147857,-15.889285 a 2.0507143,2.0507143 0 1 1 2.049643,-2.050715 2.0464286,2.0464286 0 0 1 -2.045357,2.055 z M 42.857143,0 H 5.1428571 A 5.1428571,5.1428571 0 0 0 0,5.142857 V 42.857143 A 5.1428571,5.1428571 0 0 0 5.1428571,48 H 42.857143 A 5.1428571,5.1428571 0 0 0 48,42.857143 V 5.142857 A 5.1428571,5.1428571 0 0 0 42.857143,0 Z m -1.834286,31.071429 c -0.138214,2.746071 -0.765,5.179285 -2.769643,7.178571 -2.004643,1.999286 -4.435714,2.638929 -7.178571,2.769643 -2.829643,0.159643 -11.313214,0.159643 -14.142857,0 C 14.185714,40.881429 11.761071,40.253571 9.7532143,38.25 7.7453571,36.246429 7.1142857,33.812143 6.9835714,31.071429 6.8239286,28.240714 6.8239286,19.756071 6.9835714,16.928571 7.1217857,14.1825 7.7410714,11.749286 9.7532143,9.75 11.765357,7.750714 14.196429,7.118571 16.931786,6.987857 c 2.829643,-0.159643 11.313214,-0.159643 14.142857,0 2.746071,0.138214 5.178214,0.766072 7.178571,2.769643 2.000357,2.003571 2.638929,4.437857 2.769643,7.183929 0.159643,2.82 0.159643,11.297142 0,14.13 z"
     id="path2"
     style="stroke-width:0.107143" />
</svg>
