<?xml version="1.0" standalone="no"?>
<!DOCTYPE svg PUBLIC "-//W3C//DTD SVG 20010904//EN"
 "http://www.w3.org/TR/2001/REC-SVG-20010904/DTD/svg10.dtd">
<svg version="1.0" xmlns="http://www.w3.org/2000/svg"
 width="16.000000pt" height="16.000000pt" viewBox="0 0 16.000000 16.000000"
 preserveAspectRatio="xMidYMid meet">
<metadata>
Created by potrace 1.11, written by Peter Selinger 2001-2013
</metadata>
<g transform="translate(0.000000,16.000000) scale(0.002286,-0.002286)"
fill="#000000" stroke="none">
<path d="M0 3500 l0 -3500 3500 0 3500 0 0 3500 0 3500 -3500 0 -3500 0 0
-3500z m5604 3240 c18 0 66 -49 78 -80 46 -114 59 -226 59 -507 0 -258 -8
-330 -45 -448 -23 -71 -23 -75 -6 -103 10 -16 35 -43 56 -60 94 -78 182 -22
309 193 73 124 102 148 126 103 33 -62 -29 -234 -125 -344 -49 -56 -140 -110
-202 -120 -85 -13 -194 32 -266 110 -71 79 -172 326 -203 501 -31 169 -16 469
29 620 24 77 115 155 164 139 8 -2 19 -4 26 -4z m-332 -1282 c46 -52 47 -171
3 -345 -31 -122 -67 -199 -138 -293 -32 -41 -57 -81 -57 -88 0 -8 15 -29 34
-48 27 -27 42 -34 74 -34 107 0 212 96 343 314 112 187 141 225 162 208 73
-61 -60 -359 -237 -530 -167 -162 -343 -186 -466 -62 -54 53 -83 121 -107 245
-32 169 17 391 119 536 45 65 89 97 158 115 54 15 89 9 112 -18z m-1115 -473
c13 -15 29 -59 43 -117 30 -131 85 -314 121 -405 52 -133 111 -263 119 -263 4
0 11 39 14 88 28 347 174 662 309 662 47 0 44 -32 -18 -152 -53 -102 -105
-234 -105 -264 0 -19 137 -131 195 -159 27 -14 91 -32 140 -42 79 -16 90 -21
93 -40 5 -35 -37 -69 -103 -84 -75 -17 -142 -3 -250 50 -44 22 -82 37 -84 35
-3 -3 -7 -47 -9 -98 -4 -79 0 -110 24 -197 40 -151 42 -192 10 -224 -109 -109
-296 146 -477 650 -113 316 -169 487 -169 515 0 72 95 101 147 45z m1477 -607
c8 -11 11 -28 8 -40 -2 -11 -51 -60 -108 -110 -206 -179 -588 -640 -821 -989
-244 -366 -475 -797 -691 -1289 -108 -248 -130 -307 -177 -486 -28 -104 -43
-146 -63 -166 -43 -46 -103 -33 -128 28 -22 53 2 139 135 467 314 780 718
1473 1199 2059 180 219 419 473 482 513 71 45 138 50 164 13z m-1634 -418 c11
-11 20 -25 20 -31 0 -8 17 -10 54 -6 69 7 75 0 110 -116 18 -58 37 -99 58
-123 l32 -36 66 6 c36 3 88 9 117 12 50 6 52 5 59 -20 8 -35 -16 -70 -69 -98
-37 -20 -55 -22 -153 -21 -126 3 -124 4 -124 -83 0 -65 -29 -201 -54 -258 -48
-105 -117 -157 -207 -156 -111 2 -160 89 -200 360 -20 133 8 336 60 438 27 54
105 130 144 141 49 14 65 13 87 -9z m-1236 -401 c39 -31 79 -118 217 -476 68
-178 128 -321 134 -320 5 2 26 72 46 155 48 202 98 318 169 395 64 70 99 87
175 87 54 0 58 -2 112 -52 31 -29 64 -72 74 -95 47 -109 64 -337 35 -473 -43
-199 -119 -302 -285 -381 -95 -46 -171 -32 -171 33 0 34 29 95 58 122 21 18
22 18 48 -3 39 -30 56 -26 102 23 84 91 116 194 116 371 -1 131 -13 206 -47
275 -34 69 -79 65 -135 -14 -54 -77 -90 -199 -132 -451 -37 -222 -60 -270
-132 -281 -38 -6 -87 20 -113 60 -10 14 -56 137 -105 273 -79 223 -143 394
-181 478 -8 17 -40 68 -71 114 -32 46 -58 91 -58 100 0 23 28 61 54 71 35 14
62 11 90 -11z m101 -842 c40 -40 55 -89 55 -185 0 -90 -14 -185 -46 -320 -32
-132 -53 -180 -115 -263 -42 -57 -48 -71 -40 -88 18 -32 62 -61 95 -61 64 0
181 161 281 388 61 139 115 171 128 74 15 -116 -94 -359 -221 -491 -50 -52
-66 -62 -130 -81 -109 -33 -172 -18 -244 55 -48 50 -83 122 -109 225 -43 168
-11 478 64 626 47 92 129 154 205 154 36 0 50 -6 77 -33z m-804 -83 c144 -45
264 -194 324 -401 43 -147 57 -269 59 -498 1 -216 -9 -320 -46 -495 -45 -212
-180 -538 -302 -729 -118 -184 -282 -294 -348 -234 -46 42 -9 105 119 199 92
68 147 138 222 284 98 191 160 359 180 498 43 282 52 557 26 730 -39 258 -135
455 -249 514 -51 26 -156 28 -242 3 -71 -20 -210 -89 -306 -150 -87 -57 -242
-206 -317 -306 -129 -171 -238 -444 -248 -622 -6 -91 -8 -99 -33 -121 -39 -32
-83 -24 -117 21 -42 55 -37 117 26 303 101 298 212 481 405 667 180 174 324
263 517 319 152 44 234 48 330 18z m-539 -674 c33 -25 32 -22 139 -395 129
-452 172 -567 250 -682 16 -23 29 -53 29 -68 0 -28 -40 -75 -63 -75 -26 0
-103 78 -134 137 -61 114 -169 419 -297 836 -60 194 -60 227 -2 253 42 18 49
17 78 -6z"/>
<path d="M5541 6553 c-23 -45 -35 -148 -36 -298 0 -135 4 -175 24 -257 35
-143 45 -151 61 -52 26 157 20 548 -10 603 -13 26 -26 27 -39 4z"/>
<path d="M5122 5313 c-47 -66 -102 -249 -102 -338 0 -97 82 27 125 188 37 140
25 218 -23 150z"/>
<path d="M3942 3807 c-69 -72 -103 -236 -83 -410 11 -97 41 -230 55 -244 20
-20 66 61 98 174 40 139 27 454 -21 497 -16 15 -20 13 -49 -17z"/>
<path d="M2716 2548 c-57 -116 -104 -395 -82 -483 7 -26 8 -27 27 -10 31 29
97 260 120 420 10 74 -1 125 -26 125 -8 0 -25 -24 -39 -52z"/>
</g>
</svg>
